<?xml version="1.0" standalone="no"?>
<!DOCTYPE svg PUBLIC "-//W3C//DTD SVG 20010904//EN"
 "http://www.w3.org/TR/2001/REC-SVG-20010904/DTD/svg10.dtd">
<svg version="1.0" xmlns="http://www.w3.org/2000/svg"
 width="1500.000000pt" height="1500.000000pt" viewBox="0 0 1500.000000 1500.000000"
 preserveAspectRatio="xMidYMid meet">
<metadata>
Created by potrace 1.14, written by Peter Selinger 2001-2017
</metadata>
<g transform="translate(0.000000,1500.000000) scale(0.100000,-0.100000)"
fill="#000000" stroke="none">
<path d="M3750 11250 l-3750 -3750 1888 -1887 c1038 -1039 2725 -2726 3749
-3751 l1863 -1862 3090 3090 c1699 1699 3090 3091 3090 3093 0 1 -379 2 -842
1 l-843 -1 -2247 -2248 -2248 -2249 -2645 2646 -2646 2646 1833 0 c1008 1
1839 1 1846 1 10 1 12 109 10 522 l-3 521 -1843 0 -1843 0 2646 2646 2645
2646 2250 -2249 2250 -2250 840 0 c462 0 840 1 840 2 0 2 -1390 1393 -3090
3093 l-3090 3090 -3750 -3750z"/>
<path d="M6007 10368 l-1487 -1488 67 -1 c38 0 414 0 837 0 l769 -1 651 651
c358 358 655 651 659 651 4 0 610 -603 1347 -1340 l1339 -1340 -1339 -1340
c-737 -737 -1343 -1340 -1347 -1340 -4 0 -301 293 -659 651 l-651 651 -809 -1
c-445 0 -821 0 -837 0 -23 -1 177 -205 1458 -1486 817 -817 1489 -1485 1494
-1485 5 0 988 979 2184 2175 l2175 2175 -2168 2168 c-1192 1192 -2173 2172
-2181 2178 -11 9 -322 -297 -1502 -1478z"/>
<path d="M6890 8105 l-605 -605 608 -608 607 -607 607 607 608 608 -605 605
c-333 333 -607 605 -610 605 -3 0 -277 -272 -610 -605z"/>
</g>
</svg>
